# xmcd
#
# Track frame offsets:
#	150
#	14500
#	26054
#	43948
#	55928
#	66799
#	78111
#	89616
#	104027
#	118865
#	134579
#	144142
#	158191
#	167356
#	183401
#	196505
#
# Disc length: 2782 seconds
#
# Revision: 2
# Processed by: cddbd v1.5.1PL2 Copyright (c) Steve Scherf et al.
# Submitted via: audiograbber 1.83.01
#
DISCID=d90adc10
DTITLE=diverse - Candlelight Party
DYEAR=1900
DGENRE=
TTITLE0=We've only just begun
TTITLE1=Dream a little dream of me
TTITLE2=Le reve
TTITLE3=Dreaming eyes
TTITLE4=Love is blue
TTITLE5=Me and my shadow
TTITLE6=Love Story
TTITLE7=Staggerlee blues
TTITLE8=Candlelilght waltz
TTITLE9=A Man Withhout love
TTITLE10=Spanish harlem
TTITLE11=Veronique
TTITLE12=Close up
TTITLE13=Feelings
TTITLE14=House of the rising sun
TTITLE15=Goodnight Sweetheart
EXTD=
EXTT0=
EXTT1=
EXTT2=
EXTT3=
EXTT4=
EXTT5=
EXTT6=
EXTT7=
EXTT8=
EXTT9=
EXTT10=
EXTT11=
EXTT12=
EXTT13=
EXTT14=
EXTT15=
PLAYORDER=
